<?xml version="1.0" standalone="no"?>
<!DOCTYPE svg PUBLIC "-//W3C//DTD SVG 20010904//EN"
 "http://www.w3.org/TR/2001/REC-SVG-20010904/DTD/svg10.dtd">
<svg version="1.0" xmlns="http://www.w3.org/2000/svg"
 width="512.000000pt" height="512.000000pt" viewBox="0 0 512.000000 512.000000"
 preserveAspectRatio="xMidYMid meet">

<g transform="translate(0.000000,512.000000) scale(0.100000,-0.100000)"
fill="#000000" stroke="none">
<path d="M0 2560 l0 -2560 2560 0 2560 0 0 2560 0 2560 -2560 0 -2560 0 0
-2560z m4201 1509 c393 -50 626 -289 646 -660 5 -84 2 -116 -11 -157 -48 -142
-240 -228 -387 -173 -69 26 -128 67 -164 116 -23 30 -29 50 -36 126 -15 161
-41 216 -123 258 -42 22 -62 25 -135 25 -148 -2 -219 -34 -261 -119 -22 -43
-25 -63 -25 -150 0 -124 20 -171 109 -261 71 -71 125 -108 353 -245 387 -233
538 -370 638 -580 57 -121 77 -214 77 -364 0 -206 -38 -345 -132 -488 -156
-238 -435 -357 -836 -357 -392 0 -673 152 -805 435 -50 109 -72 201 -73 315
-1 85 2 101 27 152 81 164 321 203 500 79 71 -49 96 -101 112 -232 16 -125 40
-179 94 -216 44 -30 93 -43 163 -43 140 0 234 46 275 136 33 73 42 185 19 271
-44 173 -145 276 -499 511 -250 165 -367 254 -453 343 -111 115 -170 221 -194
347 -18 92 -8 335 19 437 75 285 268 444 586 484 50 6 101 13 115 15 58 8 324
5 401 -5z m-3234 -25 c67 -22 147 -85 188 -147 25 -37 139 -334 384 -997 335
-910 349 -945 375 -948 l26 -3 0 919 c0 577 4 939 10 973 17 90 58 160 110
189 38 21 61 25 151 28 186 7 275 -38 315 -158 18 -52 19 -118 22 -1230 3
-1223 0 -1353 -38 -1452 -26 -68 -81 -123 -144 -145 -43 -15 -87 -18 -271 -18
-191 0 -227 3 -275 19 -75 26 -163 115 -214 216 -21 41 -187 480 -370 975
-323 878 -332 900 -359 903 l-27 3 0 -930 c0 -960 -1 -994 -41 -1072 -42 -84
-110 -112 -264 -111 -184 1 -257 49 -289 192 -14 61 -16 214 -16 1257 0 710 5
1218 10 1263 22 167 75 246 190 281 14 4 127 8 252 8 184 1 237 -2 275 -15z"/>
</g>
</svg>
